<?xml version="1.0" encoding="UTF-8" standalone="no"?><svg xmlns="http://www.w3.org/2000/svg" xmlns:xlink="http://www.w3.org/1999/xlink" contentScriptType="text/ecmascript" zoomAndPan="magnify" contentStyleType="text/css" stroke="#000000" stroke-linecap="square" version="1" width="38" stroke-miterlimit="10" fill="#000000" preserveAspectRatio="xMidYMid meet" viewBox="0 0 37.61 15.44" height="15"><g><g fill="#ffffff" fill-opacity="0" stroke-opacity="0" stroke="#ffffff"><path fill="none" d="M1.21 5.17H4.38c0 0 .79 0 .79.79v7.92c0 0 0 .79-.79.79H1.21c0 0-.79 0-.79-.79V5.96c0 0 0-.79.79-.79M9.13.42h3.17c0 0 .79 0 .79.79V13.88c0 0 0 .79-.79.79H9.13c0 0-.79 0-.79-.79V1.21c0 0 0-.79.79-.79m7.13 14.25H21m3.17 0h4.75m3.17 0h4.75" stroke="none"/></g><g fill="#484848" stroke="#484848"><path fill="none" d="M1.21 5.17H4.38c0 0 .79 0 .79.79v7.92c0 0 0 .79-.79.79H1.21c0 0-.79 0-.79-.79V5.96c0 0 0-.79.79-.79M9.13.42h3.17c0 0 .79 0 .79.79V13.88c0 0 0 .79-.79.79H9.13c0 0-.79 0-.79-.79V1.21c0 0 0-.79.79-.79m7.13 14.25H21m3.17 0h4.75m3.17 0h4.75"/></g></g></svg>