<?xml version="1.0" encoding="UTF-8" standalone="no"?><svg xmlns="http://www.w3.org/2000/svg" xmlns:xlink="http://www.w3.org/1999/xlink" contentScriptType="text/ecmascript" zoomAndPan="magnify" contentStyleType="text/css" stroke="#000000" stroke-linecap="square" version="1" width="638" stroke-miterlimit="10" fill="#000000" preserveAspectRatio="xMidYMid meet" viewBox="0 0 637.76 385.86" height="386"><g><g fill="#ffffff" fill-opacity="0" stroke-opacity="0" stroke="#ffffff"><path fill="none" d="M.42 259.99v35.44l45.51 25.46M.42 259.99l21.82-11.18 42.85 23.75M.42 259.99l48.17 26.68m111.77 98.42l21.82-11.18v-36.2m-21.82 11.18v36.2m0 0L105.4 354.03m76.79-16.31l-21.82 11.18m21.82-11.18l-56.67-32.3m34.85 43.47l-52.21-29.24m9.91-122.8v35.44l45.9 26.04m-45.9-61.49l21.82-11.18 43.23 24.34m-65.06-13.16l48.56 27.26M278.8 321.96l21.82-11.18v-36.2M278.8 285.76v36.2m0 0l-55.12-30.73m76.95-16.65L278.8 285.76m21.82-11.18l-57.25-31.59m35.43 42.77l-52.36-28.91m3.41-121.08v35.44L276 196.55m-46.14-60.78l21.82-11.18 43.48 23.63m-65.31-12.45l48.8 26.56m111.93 98.55l21.82-11.18V213.5m-21.82 11.18v36.2m0 0l-55.12-30.73m76.95-16.65l-21.82 11.18m21.82-11.18l-57.69-31.99m35.86 43.17l-52.09-30.5m3.04-120.75v35.44l46.05 25.66m-46.05-61.1l21.82-11.18 43.38 23.95M341.54 73.43l48.71 26.88m111.3 98.42l21.82-11.18v-36.2m-21.82 11.18v36.2m0 0L447.15 167.8m76.22-16.45l-21.82 11.18m21.82-11.18l-56.52-31.79m34.7 42.97l-51.63-29.1M455.55 11.6V47.04L501.6 73.02M455.55 11.6L477.38.42l43.38 24.28M455.55 11.6l48.7 27.2m110.9 97.99l21.82-11.18V89.41m-21.82 11.18v36.2m0 0l-53.99-30.82m75.82-16.56l-21.82 11.18m21.82-11.18L581.17 57.6m33.99 42.99l-51.23-29" stroke="none"/></g><g fill="#ffffff" stroke="#ffffff"><path fill="none" d="M.42 259.99v35.44l45.51 25.46M.42 259.99l21.82-11.18 42.85 23.75M.42 259.99l48.17 26.68m111.77 98.42l21.82-11.18v-36.2m-21.82 11.18v36.2m0 0L105.4 354.03m76.79-16.31l-21.82 11.18m21.82-11.18l-56.67-32.3m34.85 43.47l-52.21-29.24m9.91-122.8v35.44l45.9 26.04m-45.9-61.49l21.82-11.18 43.23 24.34m-65.06-13.16l48.56 27.26M278.8 321.96l21.82-11.18v-36.2M278.8 285.76v36.2m0 0l-55.12-30.73m76.95-16.65L278.8 285.76m21.82-11.18l-57.25-31.59m35.43 42.77l-52.36-28.91m3.41-121.08v35.44L276 196.55m-46.14-60.78l21.82-11.18 43.48 23.63m-65.31-12.45l48.8 26.56m111.93 98.55l21.82-11.18V213.5m-21.82 11.18v36.2m0 0l-55.12-30.73m76.95-16.65l-21.82 11.18m21.82-11.18l-57.69-31.99m35.86 43.17l-52.09-30.5m3.04-120.75v35.44l46.05 25.66m-46.05-61.1l21.82-11.18 43.38 23.95M341.54 73.43l48.71 26.88m111.3 98.42l21.82-11.18v-36.2m-21.82 11.18v36.2m0 0L447.15 167.8m76.22-16.45l-21.82 11.18m21.82-11.18l-56.52-31.79m34.7 42.97l-51.63-29.1M455.55 11.6V47.04L501.6 73.02M455.55 11.6L477.38.42l43.38 24.28M455.55 11.6l48.7 27.2m110.9 97.99l21.82-11.18V89.41m-21.82 11.18v36.2m0 0l-53.99-30.82m75.82-16.56l-21.82 11.18m21.82-11.18L581.17 57.6m33.99 42.99l-51.23-29"/></g></g></svg>